<?xml version="1.0" encoding="utf-8"?>
<svg version="1.1" xmlns="http://www.w3.org/2000/svg" xmlns:xlink="http://www.w3.org/1999/xlink" x="0px" y="0px"  width="637.2" height="80" viewBox="0 0 637.2 80" style="enable-background:new 0 0 637.2 80;" xml:space="preserve">
<path fill="#FFFFFF" d="M223.3,25.1c-1.6-2-3.6-3.6-6.1-4.7c-2.5-1.1-5.5-1.6-9.1-1.6c-4.1,0-7.7,0.8-10.7,2.4c-3,1.6-5.3,4-7,7v-8.1 h-12.9v58.4h12.9V47.5c0-2.6,0.2-5,0.7-7.3c0.5-2.2,1.2-4.2,2.3-5.8c1.1-1.6,2.5-2.8,4.2-3.7c1.7-0.9,3.8-1.4,6.3-1.4 c2.5,0,4.4,0.4,5.9,1.3c1.5,0.9,2.6,2,3.4,3.5c0.8,1.5,1.2,3.2,1.5,5.1c0.2,1.9,0.3,3.8,0.3,5.8v33.6H228V41.9 c0-3.5-0.4-6.6-1.1-9.5C226.1,29.6,224.9,27.2,223.3,25.1z"/>
<path fill="#FFFFFF" d="M346.8,51.3c0,2.6-0.2,5-0.7,7.3c-0.5,2.2-1.2,4.2-2.2,5.8c-1,1.6-2.4,2.8-4.1,3.7c-1.7,0.9-3.7,1.4-6.1,1.4 c-2.4,0-4.3-0.4-5.8-1.3c-1.4-0.9-2.5-2-3.3-3.5c-0.7-1.5-1.2-3.2-1.4-5.1c-0.2-1.9-0.3-3.8-0.3-5.8V20.1H310V57 c0,3.5,0.4,6.6,1.1,9.5c0.7,2.8,1.9,5.3,3.5,7.3c1.6,2,3.6,3.6,6.1,4.7c2.5,1.1,5.4,1.6,8.9,1.6c4,0,7.4-0.8,10.4-2.4 c2.9-1.6,5.2-4,6.9-7v8h12.9V20.1h-12.9V51.3z"/>
<path fill="#FFFFFF" d="M417.3,28.6c-2.4-3-5.4-5.4-9-7.2c-3.6-1.7-7.6-2.6-12.1-2.6c-4.1,0-7.9,0.7-11.5,2.2c-3.5,1.5-6.6,3.6-9.1,6.2 c-2.6,2.7-4.6,5.8-6,9.5c-1.4,3.7-2.1,7.7-2.1,12.1c0,4.2,0.7,8.2,2,11.9c1.3,3.8,3.2,7.1,5.8,9.9c2.5,2.8,5.6,5.1,9.3,6.7 c3.7,1.7,7.8,2.5,12.5,2.5c3.8,0,7.1-0.5,10.1-1.6c3-1.1,5.6-2.5,7.8-4.3c2.2-1.8,4-3.8,5.5-6.1c1.4-2.3,2.5-4.6,3.2-6.9h-12.7 c-1.2,2.8-3,4.8-5.5,6.1c-2.5,1.3-5.4,2-8.9,2c-1.9,0-3.7-0.3-5.5-1c-1.8-0.7-3.4-1.7-4.9-3c-1.5-1.4-2.7-3.1-3.7-5.1 c-1-2-1.6-4.4-1.8-7.1h43.6c0.3-4.9-0.2-9.5-1.4-13.6C421.5,35.3,419.7,31.7,417.3,28.6z M380.6,43.6c0.3-2.8,1-5.1,2.1-7 c1.1-1.9,2.4-3.4,3.9-4.5c1.5-1.1,3.1-1.9,4.8-2.4c1.7-0.5,3.3-0.8,4.8-0.8c1.9,0,3.7,0.3,5.5,1c1.8,0.7,3.3,1.6,4.7,2.9 c1.3,1.2,2.4,2.8,3.3,4.6c0.9,1.8,1.3,3.9,1.4,6.1H380.6z"/>
<path fill="#FFFFFF" d="M508.6,4.7h-12.9v15.4h-8.6v9.3h8.6v33.8c0,3,0.2,5.4,0.6,7.4c0.4,2,1.1,3.6,2.2,4.7c1.1,1.2,2.6,2,4.6,2.4 c2,0.5,4.5,0.7,7.6,0.7h9.6v-9.9h-4.7c-2.8,0-4.6-0.5-5.5-1.5c-0.9-1-1.4-3-1.4-5.9V29.5h11.7v-9.3h-11.7V4.7z"/>
<path fill="#FFFFFF" d="M635.7,53.9c-1.1-2-2.5-3.6-4.4-4.9c-1.9-1.3-4.1-2.4-6.6-3.2c-2.5-0.8-5.3-1.5-8.3-2.1l-8.3-1.6 c-2.5-0.5-4.5-1.3-5.8-2.4s-2-2.6-2-4.6c0-2,1.1-3.5,3.3-4.7c2.2-1.2,4.7-1.7,7.6-1.7c3.3,0,6,0.6,8.3,1.7c2.3,1.1,3.8,3,4.5,5.7 h12.2c-0.6-2.9-1.6-5.4-3.2-7.6c-1.5-2.2-3.4-4-5.5-5.4c-2.2-1.4-4.6-2.5-7.3-3.2c-2.7-0.7-5.4-1-8.3-1c-3.2,0-6.2,0.4-9.1,1.2 c-2.9,0.8-5.4,1.9-7.5,3.4c-2.2,1.5-3.9,3.3-5.2,5.3c-1.3,2.1-2,4.4-2,7c0,2.7,0.5,5,1.4,6.9c0.9,1.9,2.2,3.5,3.7,4.9 c1.6,1.3,3.5,2.4,5.6,3.3c2.1,0.8,4.4,1.5,6.9,2l8.8,1.7c2.9,0.6,5.3,1.5,7.2,2.7c1.9,1.2,2.9,3,2.9,5.4c0,2.4-1.1,4.3-3.3,5.6 c-2.2,1.3-5,2-8.4,2c-3.8,0-6.8-0.8-9-2.4c-2.2-1.6-3.5-4-4.1-7h-12.6c0.4,2.8,1.2,5.3,2.6,7.7c1.3,2.4,3.1,4.4,5.3,6.1 c2.2,1.7,4.7,3,7.7,4c2.9,1,6.2,1.5,9.8,1.5c3.3,0,6.5-0.4,9.5-1.2c3-0.8,5.6-2,7.9-3.6c2.3-1.6,4.1-3.6,5.4-5.9 c1.3-2.4,2-5.1,2-8.1C637.2,58.3,636.7,55.9,635.7,53.9z"/> <rect x="238.6" fill="#FFFFFF" width="49.3" height="11.5"/>
<polygon fill="#FFFFFF" points="238.6,40.2 299.4,40.2 299.4,28.8 238.6,28.8 "/>
<path fill="#FFFFFF" d="M163.6,39.4c0-13.2-6.9-21.3-23.2-21.3c-14.8,0-24.3,6.4-25.2,19.4h13.1c0.6-3.8,1.8-9.1,11.2-9.1 c7.6,0,11.1,3.2,11.1,12.5c0,0.7,0,2.4,0,2.4s-4,0-8.1,0c-19.7,0-29.8,7-29.8,18.6c0,12.4,8.4,17.7,20.1,17.7c12.7,0,18-9,18-9v8 h21.3V68.5h-8.6C163.6,68.5,163.6,47.5,163.6,39.4z M150.7,58c0,8-7.4,11.8-15.1,11.8c-6.8,0-9.3-4-9.3-8.3c0-6.6,5.8-9.5,16.9-9.5 c3.8,0,7.5,0,7.5,0S150.7,55.8,150.7,58z"/> <polygon fill="#FFFFFF" points="91.7,68.1 67.8,68.1 67.8,20.1 54.9,20.1 54.9,78.6 104.6,78.6 104.6,20.1 91.7,20.1 "/>
<polygon fill="#FFFFFF" points="444.2,57.3 444.2,20.1 431.3,20.1 431.3,78.6 444.2,78.6 468.9,41.4 468.9,78.6 481.8,78.6 481.8,20.1 468.9,20.1 "/>
<path fill="#FFFFFF" d="M31.3,57.2c0,5.8-2.5,10.4-9.4,10.4S13,64.4,13,57.9c0-1.9-0.2-7.1-0.2-7.1H0c0,0,0.1,3.5,0.1,7.8 c0,11.2,5.6,21,23,21c11.6,0,21.1-7.1,21.1-23.1c0-5.8,0-36.4,0-36.4H31.3C31.3,20.1,31.3,52.5,31.3,57.2z"/>
<path fill="#1216DD" d="M526.2,59.2c-1.4-2.3-3.8-3.9-3.8-5.8c0-0.3,0.1-0.7,0.2-1.1c0.8-1.6,3.4-2.8,5.8-3.9c3.3-1.4,6.7-2.5,6.8-3.7 c0.1-1.5-5.8-3.9-6.5-7.5c-0.1-0.3-0.1-0.6-0.1-0.9c0-1.5,1.1-4.4,3.5-7.5c0.7-1,1.5-1.9,2.3-2.8c1.2-1.2,2.5-2.4,3.9-3.4 c0.1-0.1,0.2-0.1,0.2-0.2c-2.2,0.9-7.4,6.3-9.2,9.2c-1.8,2.8-3.4,3.7-3.4,5.5c0,1.5,1.4,2.1,4,3.8c2.6,1.7,5.1,2.4,5.1,4 c0,0.9-6.3,2.4-9.3,3.7c-3.6,1.3-5.7,2.6-5.7,4.1c-0.1,3.4,5.4,5.4,6.9,8.4c0,0,0,0,0,0.1c-0.1-0.2-0.1-0.4-0.2-0.6 C526.8,60.2,526.5,59.7,526.2,59.2z"/>
<path fill="#90FFFF" d="M539.2,58.2c0.5,1.2,1.1,2.3,1.6,3.3c-0.3-1.5,0.5-3.8-1.2-4.7c-1.3-0.7-2.8-1.1-3.9-1.7 C536.9,55.9,538.7,56.7,539.2,58.2z"/>
<path fill="#90FFFF" d="M542.6,39.7c2,2.2,5.8,4.1,3.9,6.6c-1.1,1.4-5.5,3.3-8.8,4.8c-1.5,0.7-3,1.3-3.4,1.9c1-1.2,4.5-2.2,8.8-3.9 c4.3-1.6,7-2.1,6.9-3.9c-0.2-2.6-8-4.7-8-8.6c0-1.1,0.5-2.3,0.9-3.3c-0.6,0.8-1.1,1.6-1.2,2.1C541.1,37.4,541.7,38.6,542.6,39.7z"/>
<path fill="#FFFFFF" d="M554.1,69.1c-9.4,0-13.2-7.5-13.2-7.5c0-0.1-0.1-0.1-0.1-0.2c-0.6-1-1.2-2.1-1.6-3.3c-0.5-1.5-2.3-2.3-3.5-3.1 c0,0-0.1-0.1-0.1-0.1c-0.7-0.5-1.3-1-1.3-1.7v-0.1c0-0.1,0.1-0.2,0.1-0.3c0.4-0.6,1.9-1.2,3.4-1.9c3.3-1.6,7.7-3.4,8.8-4.8 c1.8-2.4-1.9-4.4-3.9-6.6c-0.9-1.1-1.5-2.3-0.9-4.3c0.2-0.5,0.6-1.3,1.2-2.1c0.1-0.2,0.3-0.4,0.5-0.6c2.1-2.4,6-5.1,11.9-5.1 c0,0,12.8,0,14.9,13.5h12.5c-5.1-25.1-27.5-23.6-27.5-23.6s-9.4-0.3-16.4,4.9c0,0-0.1,0.1-0.1,0.1c-0.1,0.1-0.2,0.1-0.2,0.2 c-2.6,2-4.7,4.1-6.2,6.1c-2.4,3.2-3.5,6-3.5,7.5c0,0.3,0,0.6,0.1,0.9c0.8,3.7,6.7,5.9,6.5,7.5c0,0,0,0,0,0c-0.2,1.2-3.5,2.2-6.8,3.7 c-2.4,1.1-5.1,2.3-5.8,3.9c-0.2,0.4-0.2,0.7-0.2,1.1c0,1.9,2.4,3.5,3.8,5.8c0.3,0.5,0.5,1,0.7,1.5c0.1,0.2,0.1,0.4,0.2,0.6 c0,0,0,0,0,0.1c0,0,5.8,18.6,27.5,18.6c0,0,20.3,1.5,26.6-19h-12.8C565,69.5,554.1,69.1,554.1,69.1z"/>
</svg>