<?xml version="1.0" encoding="utf-8"?>
<svg version="1.1" xmlns="http://www.w3.org/2000/svg" xmlns:xlink="http://www.w3.org/1999/xlink" x="0px" y="0px" viewBox="0 0 100 100" style="enable-background:new 0 0 100 100;" xml:space="preserve">
<path fill="#1216DD" d="M4,55.8c1.2-2.7,5.5-4.5,9.3-6.2c5.3-2.3,10.7-4,10.9-5.9C24.6,40.9,12,36.4,14,29.1c1.6-6.1,4.9-11.1,9-15.4 c2.1-2.1,4.3-4.1,6.7-5.7c-3.5,1.4-11.9,10-14.8,14.7c-2.8,4.5-5.4,5.9-5.4,8.8c0,2.4,2.2,3.4,6.4,6.1c4.2,2.7,8.1,3.9,8.1,6.4 c0,1.5-10,3.9-14.9,5.9C3.4,52,0,54,0,56.5c-0.1,5.5,8.7,8.6,11,13.5c0.1,0.1,0.1,0.2,0.2,0.3c-0.1-0.3-0.2-0.6-0.3-1 C9.1,63.4,1.9,60.5,4,55.8z"/>
<path fill="#90FFFF" d="M30.3,65.1c0.8,2.1,1.8,3.9,2.8,5.5c-0.7-2.4,0.8-6.3-2-7.8c-2.2-1.2-4.8-1.9-6.6-2.8 C26.5,61.4,29.4,62.7,30.3,65.1z"/>
<path fill="#90FFFF" d="M35.8,35.5c3.3,3.5,9.3,6.6,6.3,10.5c-1.7,2.3-8.8,5.2-14,7.7c-2.7,1.3-5.4,2.3-5.6,3.5c1-2.1,7-3.8,14.3-6.6 c6.9-2.6,11.2-3.3,11-6.3c-0.3-4.1-12.8-7.5-12.8-13.8c0-2.1,1.1-4.5,1.9-6.2c-1.5,1.7-2.4,3.2-2.7,4.2 C33.5,31.8,34.3,33.9,35.8,35.5z"/>
<path fill="#FFFFFF" d="M13.7,30.2c0,6.8,10.9,10.7,10.5,13.4c-0.2,1.9-5.6,3.6-10.9,5.9c-3.8,1.7-8.1,3.6-9.3,6.2 c-2.1,4.7,5.1,7.6,6.8,13.5c0.1,0.3,0.2,0.6,0.3,1c0,0,9.2,29.7,44,29.7c0,0,32.5,2.4,42.6-30.4H77.3c-5.7,13.7-23,13.1-23,13.1 c-15.1,0-21.1-12-21.1-12c-1-1.6-2-3.5-2.8-5.5c-0.9-2.4-3.8-3.7-5.8-5.1c-1.1-0.8-2-1.6-2-2.7c0,0,0-0.1,0-0.1 c0.2-1.2,2.8-2.2,5.6-3.5c5.2-2.5,12.3-5.4,14-7.7c2.9-3.9-3.1-7-6.3-10.5c-1.5-1.7-2.4-3.7-1.4-6.9c0.3-1,1.2-2.6,2.7-4.2 c3.3-3.8,9.6-8.2,19-8.2c0,0,20.5,0,23.8,21.6H100C91.8-2.4,56.1,0,56.1,0s-15-0.4-26.3,7.9S13.7,26.2,13.7,30.2z"/>
</svg>